<svg xmlns="http://www.w3.org/2000/svg" xmlns:xlink="http://www.w3.org/1999/xlink" viewBox="0 0 775.36 552.91"><defs><style>.cls-1,.cls-14,.cls-17,.cls-18{fill:none;}.cls-2{fill:#fff;}.cls-3{fill:#1f3158;}.cls-4{fill:#1560ab;}.cls-5{fill:#a7d8dd;}.cls-6{fill:#1d98c6;}.cls-7{fill:#2a70b7;}.cls-16,.cls-8{font-size:14.04px;}.cls-10,.cls-15,.cls-16,.cls-8,.cls-9{fill:#1d1d1b;}.cls-10,.cls-8,.cls-9{font-family:ArialMT, Arial;}.cls-9{font-size:10.85px;}.cls-10{font-size:7.66px;}.cls-11{fill:#b2b2b2;}.cls-12{fill:#9d9d9c;}.cls-13{fill:#cbbba0;}.cls-14{stroke:#36a9e1;}.cls-14,.cls-15{stroke-miterlimit:10;stroke-width:0.5px;}.cls-15{stroke:#9d9d9c;}.cls-16{font-family:Arial-BoldMT, Arial;font-weight:700;}.cls-17,.cls-18{stroke:#e9560d;stroke-linejoin:round;}.cls-18{stroke-linecap:round;}.cls-19{isolation:isolate;}.cls-20{clip-path:url(#clip-path);}.cls-21{fill:#c7c7c7;}.cls-22{fill:#cacaca;}.cls-23{fill:#cdcdcd;}.cls-24{fill:#d0d0d0;}.cls-25{fill:#d3d3d3;}.cls-26{fill:#ccc;}.cls-27{clip-path:url(#clip-path-2);}.cls-28{fill:#b8b8b8;}.cls-29{fill:#bbb;}.cls-30{fill:#bebebe;}.cls-31{fill:#c1c1c1;}.cls-32{fill:#c4c4c4;}.cls-33{clip-path:url(#clip-path-3);}.cls-34{clip-path:url(#clip-path-4);}.cls-35{fill:#cfcfcf;}.cls-36{clip-path:url(#clip-path-5);}.cls-37{clip-path:url(#clip-path-6);}.cls-38{clip-path:url(#clip-path-7);}.cls-39{clip-path:url(#clip-path-8);}.cls-40{fill:#cecece;}.cls-41{clip-path:url(#clip-path-9);}.cls-42{clip-path:url(#clip-path-10);}.cls-43{fill:#eaeaea;}.cls-44{clip-path:url(#clip-path-11);}.cls-45{fill:#222954;fill-rule:evenodd;}.cls-46{clip-path:url(#clip-path-12);}.cls-47{clip-path:url(#clip-path-13);}.cls-48{clip-path:url(#clip-path-14);}.cls-49{clip-path:url(#clip-path-15);}.cls-50{clip-path:url(#clip-path-16);}.cls-51{clip-path:url(#clip-path-17);}.cls-52{clip-path:url(#clip-path-18);}.cls-53{clip-path:url(#clip-path-19);}.cls-54{clip-path:url(#clip-path-20);}.cls-55{clip-path:url(#clip-path-21);}</style><clipPath id="clip-path"><path class="cls-1" d="M301.93,60.58l5.17-3a.72.72,0,0,0,.49.66l-5.17,3A.72.72,0,0,1,301.93,60.58Z"/></clipPath><clipPath id="clip-path-2"><path class="cls-1" d="M301.82,44.76l5.17-3a.66.66,0,0,0-.25.53l-5.17,3A.66.66,0,0,1,301.82,44.76Z"/></clipPath><clipPath id="clip-path-3"><path class="cls-1" d="M301.89,44.71l5.17-3-.07,0-5.17,3Z"/></clipPath><clipPath id="clip-path-4"><path class="cls-1" d="M301.89,44.71l5.17-3a.54.54,0,0,1,.33-.08l-5.17,3A.63.63,0,0,0,301.89,44.71Z"/></clipPath><clipPath id="clip-path-5"><path class="cls-1" d="M320.1,62l-5.17,3a.63.63,0,0,1-.33.09l-.19,0,5.17-3a.58.58,0,0,0,.18,0A.67.67,0,0,0,320.1,62Z"/></clipPath><clipPath id="clip-path-6"><path class="cls-1" d="M301.52,44.06l5.16-3a1.39,1.39,0,0,1,.69-.18,1.13,1.13,0,0,1,.36.06l-5.16,3a1.19,1.19,0,0,0-.37-.06A1.36,1.36,0,0,0,301.52,44.06Z"/></clipPath><clipPath id="clip-path-7"><path class="cls-1" d="M320.1,62l-5.17,3,.06,0a.67.67,0,0,0,.26-.54l5.16-3a.64.64,0,0,1-.25.54Z"/></clipPath><clipPath id="clip-path-8"><path class="cls-1" d="M320.48,62.61l-5.17,3,.13-.09a1.35,1.35,0,0,0,.53-1.13l5.17-3a1.35,1.35,0,0,1-.53,1.13Z"/></clipPath><clipPath id="clip-path-9"><path class="cls-1" d="M319.66,45.17l-5.16,3-.12-.05,5.17-3Z"/></clipPath><clipPath id="clip-path-10"><path class="cls-1" d="M319.66,45.17a.71.71,0,0,1,.39.61l-5.17,3a.7.7,0,0,0-.38-.61Z"/></clipPath><clipPath id="clip-path-11"><path class="cls-1" d="M314.55,47.45l5.16-3a1.5,1.5,0,0,1,1.06,1.38l-5.17,3A1.48,1.48,0,0,0,314.55,47.45Z"/></clipPath><clipPath id="clip-path-12"><path class="cls-1" d="M512.73,373.37l5.17-3a.72.72,0,0,0,.49.66l-5.16,3A.73.73,0,0,1,512.73,373.37Z"/></clipPath><clipPath id="clip-path-13"><path class="cls-1" d="M512.68,357.5l5.17-3-.06,0a.62.62,0,0,0-.25.53l-5.17,3a.67.67,0,0,1,.25-.53Z"/></clipPath><clipPath id="clip-path-14"><path class="cls-1" d="M512.68,357.5l5.17-3a.66.66,0,0,1,.33-.09l-5.16,3A.77.77,0,0,0,512.68,357.5Z"/></clipPath><clipPath id="clip-path-15"><path class="cls-1" d="M530.92,374.75l-5.17,3a.52.52,0,0,1-.34.09.63.63,0,0,1-.19,0l5.16-3,.2,0A.59.59,0,0,0,530.92,374.75Z"/></clipPath><clipPath id="clip-path-16"><path class="cls-1" d="M512.3,356.86l5.16-3a1.37,1.37,0,0,1,.71-.18,1.49,1.49,0,0,1,.36.05l-5.16,3a1.57,1.57,0,0,0-.37-.05A1.22,1.22,0,0,0,512.3,356.86Z"/></clipPath><clipPath id="clip-path-17"><path class="cls-1" d="M530.92,374.75l-5.17,3,0,0,5.16-3S530.93,374.74,530.92,374.75Z"/></clipPath><clipPath id="clip-path-18"><path class="cls-1" d="M526.05,377.21l5.16-3a.62.62,0,0,1-.25.53l-5.16,3A.68.68,0,0,0,526.05,377.21Z"/></clipPath><clipPath id="clip-path-19"><path class="cls-1" d="M531.27,375.4l-5.17,3,.14-.09a1.35,1.35,0,0,0,.53-1.12l5.16-3a1.35,1.35,0,0,1-.53,1.12Z"/></clipPath><clipPath id="clip-path-20"><path class="cls-1" d="M525.18,361l5.16-3a.71.71,0,0,1,.51.66l-5.17,3A.7.7,0,0,0,525.18,361Z"/></clipPath><clipPath id="clip-path-21"><path class="cls-1" d="M525.35,360.24l5.17-3a1.51,1.51,0,0,1,1.05,1.39l-5.17,3A1.48,1.48,0,0,0,525.35,360.24Z"/></clipPath></defs><g id="Capa_2" data-name="Capa 2"><g id="Hoja_2" data-name="Hoja 2"><rect class="cls-2" width="775.36" height="552.91"/><polygon class="cls-3" points="243.18 198.34 343.23 132.58 375.95 143.01 277.89 210.17 243.18 198.34"/><path class="cls-4" d="M343.29,133l31.81,10.14-97.27,66.63L244,198.23,343.29,133m-.12-.82L242.33,198.45,278,210.59l98.84-67.71-33.62-10.71Z"/><polygon class="cls-5" points="249.93 196.46 343.24 135.33 370.12 143.89 277.94 206.09 249.93 196.46"/><polygon class="cls-3" points="242.71 219.33 242.71 198.96 277.57 210.86 277.57 231.25 242.71 219.33"/><path class="cls-4" d="M243.08,199.48l34.12,11.64v19.61l-34.12-11.67V199.48m-.75-1V219.6L278,231.78V210.59l-35.62-12.16Z"/><polygon class="cls-3" points="278.32 210.79 376.42 143.59 376.42 161.26 278.32 231.05 278.32 210.79"/><path class="cls-4" d="M376,144.31v16.76L278.7,230.32V211L376,144.31m.75-1.43L278,210.59v21.19l98.84-70.32V142.88Z"/><polygon class="cls-6" points="343.24 139.03 253.65 197.64 249.93 196.46 343.24 135.33 343.24 139.03"/><polygon class="cls-7" points="343.24 139.03 366.48 146.34 370.12 143.89 343.24 135.33 343.24 139.03"/><polygon class="cls-3" points="352.66 219.55 452.71 153.78 485.43 164.21 387.37 231.38 352.66 219.55"/><path class="cls-4" d="M452.77,154.2l31.81,10.14L387.31,231l-33.8-11.52,99.26-65.24m-.11-.83L351.82,219.66l35.61,12.13,98.84-67.7-33.61-10.72Z"/><polygon class="cls-5" points="359.42 217.67 452.73 156.53 479.6 165.1 387.43 227.3 359.42 217.67"/><polygon class="cls-3" points="352.19 240.54 352.19 220.16 387.05 232.06 387.05 252.46 352.19 240.54"/><path class="cls-4" d="M352.57,220.69l34.11,11.64v19.6l-34.11-11.66V220.69m-.75-1.05v21.17L387.43,253V231.79l-35.61-12.15Z"/><polygon class="cls-3" points="387.8 231.99 485.9 164.8 485.9 182.47 387.8 252.26 387.8 231.99"/><path class="cls-4" d="M485.52,165.51v16.77l-97.34,69.25V232.19l97.34-66.68m.75-1.42-98.84,67.7V253l98.84-70.32V164.09Z"/><polygon class="cls-6" points="452.73 160.23 363.14 218.84 359.42 217.67 452.73 156.53 452.73 160.23"/><polygon class="cls-7" points="452.73 160.23 475.96 167.54 479.6 165.1 452.73 156.53 452.73 160.23"/><polygon class="cls-3" points="473.22 243.88 573.27 178.11 605.99 188.54 507.93 255.71 473.22 243.88"/><path class="cls-4" d="M573.33,178.52l31.81,10.15-97.27,66.62-33.8-11.52,99.26-65.25m-.11-.82L472.38,244,508,256.12l98.84-67.7L573.22,177.7Z"/><polygon class="cls-5" points="479.97 242 573.28 180.86 600.16 189.43 507.99 251.63 479.97 242"/><polygon class="cls-3" points="472.75 264.87 472.75 244.49 507.61 256.39 507.61 276.79 472.75 264.87"/><path class="cls-4" d="M473.13,245l34.11,11.64v19.6L473.13,264.6V245m-.75-1.05v21.17L508,277.31V256.12L472.38,244Z"/><polygon class="cls-3" points="508.36 256.32 606.46 189.13 606.46 206.8 508.36 276.59 508.36 256.32"/><path class="cls-4" d="M606.08,189.84v16.77l-97.34,69.25V256.52l97.34-66.68m.75-1.42L508,256.12v21.19L606.83,207V188.42Z"/><polygon class="cls-6" points="573.28 184.56 483.7 243.17 479.97 242 573.28 180.86 573.28 184.56"/><polygon class="cls-7" points="573.28 184.56 596.52 191.87 600.16 189.43 573.28 180.86 573.28 184.56"/><text class="cls-8" transform="translate(210.48 42.2)">Estación 1</text><text class="cls-9" transform="translate(342.66 62.49)">Caja </text><text class="cls-10" transform="translate(179.65 116.78)">Sensor 1</text><text class="cls-10" transform="translate(290.99 132.62)">Sensor 2</text><text class="cls-10" transform="translate(401.63 155.01)">Sensor 3</text><text class="cls-10" transform="translate(526.36 177.95)">Sensor 4</text><polygon class="cls-11" points="291.64 69.83 291.04 29.2 337.03 42.39 337.03 82.85 291.64 69.83"/><path class="cls-12" d="M291.43,29.69l45.22,13V82.35L292,69.54l-.58-39.85m-.77-1,.61,41.42L337.4,83.35V42.1L290.66,28.69Z"/><polygon class="cls-11" points="303.23 97.61 337.03 78.2 337.03 83.29 303.23 103.05 303.23 97.61"/><path class="cls-12" d="M336.65,78.85v4.22l-33,19.32V97.82l33-19m.75-1.3L302.86,97.39v6.31L337.4,83.5v-6Z"/><polygon class="cls-11" points="259.7 89.6 259.7 83.91 302.48 97.66 302.48 103.19 259.7 89.6"/><path class="cls-12" d="M260.07,84.43l42,13.51v4.74l-42-13.35v-4.9m-.75-1v6.47l43.54,13.83V97.39l-43.54-14Z"/><polygon class="cls-13" points="260.57 83.27 291.2 66.02 336.09 77.73 302.8 96.85 260.57 83.27"/><path class="cls-13" d="M291.27,66.56,334.78,77.9l-32,18.4L261.81,83.14l29.46-16.58m-.14-1.07L259.32,83.4l43.54,14L337.4,77.55,291.13,65.49Z"/><ellipse class="cls-14" cx="333.6" cy="154.02" rx="3.74" ry="1.07"/><ellipse class="cls-14" cx="333.6" cy="154.02" rx="5.87" ry="1.92"/><ellipse class="cls-14" cx="333.6" cy="154.13" rx="8.27" ry="2.71"/><ellipse class="cls-14" cx="446.02" cy="175.96" rx="3.74" ry="1.07"/><ellipse class="cls-14" cx="446.02" cy="175.96" rx="5.87" ry="1.92"/><ellipse class="cls-14" cx="446.02" cy="176.08" rx="8.27" ry="2.71"/><ellipse class="cls-14" cx="568.16" cy="199.81" rx="3.74" ry="1.07"/><ellipse class="cls-14" cx="568.16" cy="199.81" rx="5.87" ry="1.92"/><ellipse class="cls-14" cx="568.16" cy="199.93" rx="8.27" ry="2.71"/><path class="cls-15" d="M331,154V140.4a1.65,1.65,0,0,1,1.46-1.79h2.18a1.65,1.65,0,0,1,1.46,1.79V154a5.57,5.57,0,0,1-2.53.55A5.21,5.21,0,0,1,331,154Z"/><rect class="cls-15" x="330.19" y="141.6" width="6.83" height="3.68"/><path class="cls-15" d="M443.45,175.87V162.26a1.65,1.65,0,0,1,1.45-1.79h2.19a1.65,1.65,0,0,1,1.46,1.79v13.61a5.65,5.65,0,0,1-2.53.54A5.24,5.24,0,0,1,443.45,175.87Z"/><rect class="cls-15" x="442.6" y="163.45" width="6.83" height="3.68"/><path class="cls-15" d="M565.59,199.68V186.07a1.65,1.65,0,0,1,1.45-1.79h2.19a1.65,1.65,0,0,1,1.46,1.79v13.61a5.57,5.57,0,0,1-2.53.55A5.17,5.17,0,0,1,565.59,199.68Z"/><rect class="cls-15" x="564.74" y="187.27" width="6.83" height="3.68"/><text class="cls-16" transform="translate(283.52 187.84)">R2</text><text class="cls-16" transform="translate(399.74 206.29)">R3</text><text class="cls-16" transform="translate(520.82 230.97)">R4</text><polyline class="cls-17" points="232.27 117.43 232.27 107.43 292.85 71.41 301.16 73.89"/><polyline class="cls-17" points="333.58 138.08 333.58 119.55 374.34 93.95"/><polyline class="cls-18" points="446 159.88 446.04 142.74 478.18 122.62"/><polyline class="cls-17" points="568.16 184.68 568.2 167.53 590.55 153.54 301.16 73.89 308.61 70.05 308.48 63.26"/><g class="cls-19"><g class="cls-19"><g class="cls-20"><g class="cls-19"><path class="cls-21" d="M301.93,60.58l5.17-3v.05l-5.16,3a.43.43,0,0,0,0-.05"/><path class="cls-22" d="M301.94,60.63l5.16-3s0,0,0,.08l-5.17,3a.25.25,0,0,1,0-.08"/><path class="cls-23" d="M302,60.71l5.17-3a.29.29,0,0,0,0,.09l-5.17,3s0-.06,0-.09"/><path class="cls-24" d="M302,60.8l5.17-3a.67.67,0,0,0,.06.12l-5.17,3L302,60.8"/><path class="cls-25" d="M302,60.92l5.17-3a.78.78,0,0,0,.16.2l-5.16,3a.65.65,0,0,1-.17-.2"/><path class="cls-24" d="M302.2,61.12l5.16-3,.11.07-5.17,3-.1-.07"/><path class="cls-23" d="M302.3,61.19l5.17-3,.08,0-5.17,3-.08,0"/><path class="cls-22" d="M302.38,61.22l5.17-3,0,0-5.17,3,0,0"/></g></g></g><polygon class="cls-26" points="301.57 45.29 306.74 42.25 307.1 57.54 301.93 60.58 301.57 45.29"/><g class="cls-19"><g class="cls-27"><g class="cls-19"><path class="cls-28" d="M301.82,44.76l5.17-3a.61.61,0,0,0-.17.19l-5.17,3a.77.77,0,0,1,.17-.19"/><path class="cls-29" d="M301.65,45l5.17-3,0,.09-5.17,3a.36.36,0,0,0,0-.09"/><path class="cls-30" d="M301.61,45l5.17-3a.24.24,0,0,0,0,.08l-5.17,3a.31.31,0,0,0,0-.08"/><path class="cls-31" d="M301.59,45.12l5.17-3a.17.17,0,0,0,0,.07l-5.17,3s0,0,0-.07"/><path class="cls-32" d="M301.58,45.19l5.17-3a.17.17,0,0,0,0,.07l-5.17,3s0,0,0-.07"/><path class="cls-21" d="M301.57,45.26l5.17-3v0l-5.17,3v0"/></g></g></g><g class="cls-19"><g class="cls-33"><g class="cls-19"><path class="cls-28" d="M301.89,44.71l5.17-3-.07,0-5.17,3,.07,0"/></g></g></g><g class="cls-19"><g class="cls-34"><g class="cls-19"><path class="cls-28" d="M301.89,44.71l5.17-3,.09,0-5.17,3-.09,0"/><path class="cls-29" d="M302,44.67l5.17-3,.09,0-5.17,3-.09,0"/><path class="cls-30" d="M302.07,44.64l5.17-3h.08l-5.17,3h-.08"/><path class="cls-31" d="M302.15,44.63l5.17-3a.16.16,0,0,1,.07,0l-5.17,3h-.07"/></g></g></g><polygon class="cls-22" points="302.22 44.62 307.39 41.59 307.56 41.62 302.39 44.65 302.22 44.62"/><polygon class="cls-35" points="302.42 61.23 307.58 58.2 319.58 62.02 314.41 65.05 302.42 61.23"/><g class="cls-19"><g class="cls-36"><g class="cls-19"><path class="cls-22" d="M314.41,65.05l5.17-3,.05,0-5.17,3,0,0"/><path class="cls-21" d="M314.46,65.07l5.17-3h.06l-5.16,3h-.07"/><path class="cls-32" d="M314.53,65.08l5.16-3h.07l-5.16,3h-.07"/><path class="cls-31" d="M314.6,65.09l5.16-3h.07l-5.16,3h-.07"/><path class="cls-30" d="M314.67,65.08l5.16-3h.08l-5.16,3h-.08"/><path class="cls-29" d="M314.75,65.07l5.16-3,.1,0-5.17,3-.09,0"/><path class="cls-28" d="M314.84,65,320,62l.09,0-5.17,3-.09,0"/></g></g></g><g class="cls-19"><g class="cls-37"><g class="cls-19"><path class="cls-28" d="M301.52,44.06l5.16-3,.19-.09-5.17,3-.18.09"/><path class="cls-29" d="M301.7,44l5.17-3,.19-.06-5.17,3-.19.06"/><path class="cls-30" d="M301.89,43.91l5.17-3,.16,0-5.17,3-.16,0"/><path class="cls-31" d="M302.05,43.89l5.17-3h.15l-5.17,3h-.15"/><path class="cls-32" d="M302.2,43.88l5.17-3h.15l-5.17,3h-.15"/><path class="cls-21" d="M302.35,43.89l5.17-3,.15,0-5.16,3-.16,0"/><path class="cls-22" d="M302.51,43.92l5.16-3,.06,0-5.16,3-.06,0"/></g></g></g><g class="cls-19"><g class="cls-38"><g class="cls-19"><path class="cls-21" d="M315.25,64.42l5.16-3v0l-5.16,3v0"/><path class="cls-32" d="M315.25,64.45l5.16-3v.07l-5.17,3a.2.2,0,0,0,0-.07"/><path class="cls-31" d="M315.24,64.52l5.17-3s0,.05,0,.07l-5.17,3a.17.17,0,0,0,0-.07"/><path class="cls-30" d="M315.23,64.59l5.17-3,0,.08-5.16,3s0,0,0-.08"/><path class="cls-29" d="M315.21,64.67l5.16-3,0,.08-5.17,3s0,0,0-.08"/><path class="cls-28" d="M315.17,64.75l5.17-3a.91.91,0,0,1-.18.21l-.06,0-5.17,3,.06,0a.6.6,0,0,0,.18-.21"/></g></g></g><g class="cls-19"><g class="cls-39"><g class="cls-19"><path class="cls-21" d="M316,64.43l5.17-3v.06l-5.17,3v-.06"/><path class="cls-32" d="M316,64.49l5.17-3s0,.11,0,.16l-5.17,3a.92.92,0,0,0,0-.16"/><path class="cls-31" d="M316,64.65l5.17-3,0,.15-5.17,3,0-.15"/><path class="cls-30" d="M315.93,64.8l5.17-3a1,1,0,0,1-.05.16l-5.17,3a1,1,0,0,0,.05-.16"/><path class="cls-29" d="M315.88,65l5.17-3a1.42,1.42,0,0,1-.08.18l-5.17,3a1.42,1.42,0,0,0,.08-.18"/><path class="cls-28" d="M315.8,65.14l5.17-3a1.32,1.32,0,0,1-.36.42l-.13.09-5.17,3,.13-.09a1.44,1.44,0,0,0,.36-.42"/></g></g></g><polygon class="cls-40" points="302.39 44.65 307.56 41.62 319.55 45.12 314.38 48.16 302.39 44.65"/><g class="cls-19"><g class="cls-41"><g class="cls-19"><path class="cls-22" d="M314.38,48.16l5.17-3,0,0-5.17,3,0,0"/><path class="cls-23" d="M314.42,48.18l5.17-3,.08,0-5.16,3-.09,0"/></g></g></g><polygon class="cls-26" points="314.88 48.82 320.05 45.78 320.42 61.38 315.25 64.42 314.88 48.82"/><g class="cls-19"><g class="cls-42"><g class="cls-19"><path class="cls-23" d="M314.42,48.18l5.17-3,.08,0-5.16,3-.09,0"/><path class="cls-24" d="M314.51,48.21l5.16-3,.11.08-5.16,3-.11-.08"/><path class="cls-25" d="M314.62,48.29l5.16-3a.55.55,0,0,1,.17.2l-5.16,3a.67.67,0,0,0-.17-.2"/><path class="cls-24" d="M314.79,48.49l5.16-3a.45.45,0,0,1,.06.12l-5.17,3a.33.33,0,0,0,0-.12"/><path class="cls-23" d="M314.84,48.61l5.17-3a.29.29,0,0,1,0,.09l-5.16,3,0-.08"/><path class="cls-22" d="M314.87,48.69l5.16-3a.17.17,0,0,1,0,.07l-5.16,3s0-.05,0-.08"/><path class="cls-21" d="M314.88,48.77l5.16-3a.09.09,0,0,1,0,.05l-5.17,3v0"/></g></g></g><path class="cls-43" d="M314.55,47.45a1.48,1.48,0,0,1,1.05,1.38l.37,15.6a1.35,1.35,0,0,1-.53,1.13,1.28,1.28,0,0,1-.82.26,1.44,1.44,0,0,1-.4-.06l-12-3.82a1.5,1.5,0,0,1-1-1.38l-.36-15.28a1.35,1.35,0,0,1,.53-1.12,1.32,1.32,0,0,1,.83-.28,1.19,1.19,0,0,1,.37.06Zm.7,17-.37-15.6a.72.72,0,0,0-.5-.66l-12-3.51-.17,0a.63.63,0,0,0-.4.14.66.66,0,0,0-.25.53l.36,15.29a.72.72,0,0,0,.49.66l12,3.81.19,0a.65.65,0,0,0,.65-.67"/><path class="cls-43" d="M302.22,44.62l.17,0,12,3.51a.72.72,0,0,1,.5.66l.37,15.6a.65.65,0,0,1-.65.67l-.19,0-12-3.81a.72.72,0,0,1-.49-.66l-.36-15.29a.66.66,0,0,1,.25-.53A.63.63,0,0,1,302.22,44.62Z"/><polygon class="cls-40" points="302.57 43.94 307.73 40.9 319.71 44.41 314.55 47.45 302.57 43.94"/><polygon class="cls-26" points="315.6 48.83 320.77 45.79 321.14 61.39 315.97 64.43 315.6 48.83"/><g class="cls-19"><g class="cls-44"><g class="cls-19"><path class="cls-22" d="M314.55,47.45l5.16-3,.1,0-5.17,3-.09,0"/><path class="cls-23" d="M314.64,47.48l5.17-3,.17.07-5.16,3-.18-.08"/><path class="cls-24" d="M314.82,47.56l5.16-3,.24.16-5.17,3a1.88,1.88,0,0,0-.23-.16"/><path class="cls-25" d="M315.05,47.72l5.17-3a1.43,1.43,0,0,1,.35.42l-5.16,3a1.77,1.77,0,0,0-.36-.41"/><path class="cls-24" d="M315.41,48.13l5.16-3a1.15,1.15,0,0,1,.12.25l-5.17,3a2,2,0,0,0-.11-.26"/><path class="cls-23" d="M315.52,48.39l5.17-3a1.21,1.21,0,0,1,.05.18l-5.17,3a1.21,1.21,0,0,0-.05-.18"/><path class="cls-22" d="M315.57,48.57l5.17-3a1,1,0,0,1,0,.16l-5.16,3,0-.16"/><path class="cls-21" d="M315.6,48.73l5.16-3a.38.38,0,0,1,0,.1l-5.17,3v-.1"/></g></g></g></g><g id="Capa_1-2" data-name="Capa 1-2"><g id="Siemav-blanco"><path class="cls-45" d="M312.16,57.85l-.36,1.57a.35.35,0,0,1-.46.24l-8-2.46a.51.51,0,0,1-.37-.58l1-4.49,3,.92,1.07,3-2.32-.72a.12.12,0,0,0-.14,0l-.62,1a.13.13,0,0,0,0,.15.25.25,0,0,0,.14.11l3.71,1.15a.22.22,0,0,0,.08,0l1.5-.5ZM308.6,52.6l3.31,1-.48.8-2.31-.73a.14.14,0,0,0-.14,0,.14.14,0,0,0,0,.15L310.11,57l-1.39.46-3.4-1.06.45-.75,2.46.77a.17.17,0,0,0,.14,0,.14.14,0,0,0,0-.14l-1.15-3.21Z"/><path class="cls-45" d="M305.08,52.16l.48-2.12a.39.39,0,0,1,.5-.26l8,2.46a.64.64,0,0,1,.46.73l-1.12,5-3-.92-1.07-2.95,2.17.69a.11.11,0,0,0,.14,0l.63-1.05a.15.15,0,0,0,0-.16.25.25,0,0,0-.14-.11l-3.61-1.12h-.08l-1.47.48-1.91-.58v0ZM313,53.55l.14,0a1.33,1.33,0,0,0-.59-.78l0,.11A1.06,1.06,0,0,1,313,53.55Zm.35,0h.17a1.89,1.89,0,0,0-.87-1.11l0,.14A1.64,1.64,0,0,1,313.3,53.58Zm-.93-.41a.89.89,0,0,1,.26.35h.11a1.14,1.14,0,0,0-.35-.47Z"/></g></g><polygon class="cls-3" points="143.2 177.06 243.25 111.29 275.96 121.72 177.91 188.89 143.2 177.06"/><path class="cls-4" d="M243.3,111.7l31.82,10.15-97.27,66.62L144,177,243.3,111.7m-.11-.82L142.35,177.16,178,189.3l98.85-67.7-33.62-10.72Z"/><polygon class="cls-5" points="149.95 175.18 243.26 114.04 270.13 122.61 177.96 184.81 149.95 175.18"/><polygon class="cls-3" points="142.73 198.05 142.73 177.67 177.59 189.57 177.59 209.97 142.73 198.05"/><path class="cls-4" d="M143.1,178.2l34.11,11.64v19.6L143.1,197.78V178.2m-.75-1v21.17L178,210.49V189.3l-35.61-12.15Z"/><polygon class="cls-3" points="178.34 189.5 276.43 122.31 276.43 139.98 178.34 209.76 178.34 189.5"/><path class="cls-4" d="M276.06,123v16.77L178.71,209V189.7L276.06,123m.75-1.42L178,189.3v21.19l98.85-70.32V121.6Z"/><polygon class="cls-6" points="243.26 117.74 153.67 176.35 149.95 175.18 243.26 114.04 243.26 117.74"/><polygon class="cls-7" points="243.26 117.74 266.5 125.05 270.13 122.61 243.26 114.04 243.26 117.74"/><text class="cls-16" transform="translate(180.56 166.62)">R1</text><ellipse class="cls-14" cx="232.27" cy="133.56" rx="3.74" ry="1.07"/><ellipse class="cls-14" cx="232.27" cy="133.56" rx="5.87" ry="1.92"/><ellipse class="cls-14" cx="232.27" cy="133.67" rx="8.27" ry="2.71"/><path class="cls-15" d="M229.72,133.35V119.74a1.65,1.65,0,0,1,1.45-1.79h2.19a1.65,1.65,0,0,1,1.46,1.79v13.61a5.57,5.57,0,0,1-2.53.55A5.17,5.17,0,0,1,229.72,133.35Z"/><rect class="cls-15" x="228.87" y="120.94" width="6.83" height="3.68"/><polygon class="cls-3" points="214.44 448.7 314.49 382.94 347.21 393.37 249.15 460.53 214.44 448.7"/><path class="cls-4" d="M314.55,383.35l31.81,10.14-97.27,66.63-33.8-11.53,99.26-65.24m-.11-.83L213.59,448.81,249.21,461l98.84-67.71-33.61-10.72Z"/><polygon class="cls-5" points="221.19 446.82 314.5 385.69 341.38 394.25 249.21 456.45 221.19 446.82"/><polygon class="cls-3" points="213.97 469.69 213.97 449.32 248.83 461.22 248.83 481.61 213.97 469.69"/><path class="cls-4" d="M214.34,449.84l34.12,11.64v19.61l-34.12-11.67V449.84m-.75-1V470l35.62,12.18V461l-35.62-12.16Z"/><polygon class="cls-3" points="249.58 461.14 347.68 393.95 347.68 411.62 249.58 481.41 249.58 461.14"/><path class="cls-4" d="M347.3,394.66v16.77L250,480.68V461.34l97.34-66.68m.75-1.42L249.21,461v21.19l98.84-70.32V393.24Z"/><polygon class="cls-6" points="314.5 389.38 224.91 448 221.19 446.82 314.5 385.69 314.5 389.38"/><polygon class="cls-7" points="314.5 389.38 337.74 396.69 341.38 394.25 314.5 385.69 314.5 389.38"/><polygon class="cls-3" points="323.92 469.91 423.98 404.14 456.69 414.57 358.63 481.74 323.92 469.91"/><path class="cls-4" d="M424,404.55l31.81,10.15-97.27,66.62-33.8-11.52L424,404.55m-.11-.82L323.08,470l35.61,12.14,98.84-67.7-33.61-10.72Z"/><polygon class="cls-5" points="330.68 468.03 423.99 406.89 450.86 415.46 358.69 477.66 330.68 468.03"/><polygon class="cls-3" points="323.45 490.9 323.45 470.52 358.31 482.42 358.31 502.82 323.45 490.9"/><path class="cls-4" d="M323.83,471.05l34.11,11.64v19.6l-34.11-11.66V471.05m-.75-1.05v21.17l35.61,12.17V482.15L323.08,470Z"/><polygon class="cls-3" points="359.06 482.35 457.16 415.16 457.16 432.83 359.06 502.62 359.06 482.35"/><path class="cls-4" d="M456.78,415.87v16.77l-97.34,69.25V482.55l97.34-66.68m.75-1.42-98.84,67.7v21.19L457.53,433V414.45Z"/><polygon class="cls-6" points="423.99 410.59 334.4 469.2 330.68 468.03 423.99 406.89 423.99 410.59"/><polygon class="cls-7" points="423.99 410.59 447.22 417.9 450.86 415.46 423.99 406.89 423.99 410.59"/><polygon class="cls-3" points="444.48 494.24 544.53 428.47 577.25 438.9 479.19 506.07 444.48 494.24"/><path class="cls-4" d="M544.59,428.88,576.4,439l-97.27,66.62-33.8-11.52,99.26-65.25m-.11-.82L443.64,494.34l35.61,12.14,98.84-67.7-33.61-10.72Z"/><polygon class="cls-5" points="451.23 492.36 544.54 431.22 571.42 439.79 479.25 501.99 451.23 492.36"/><polygon class="cls-3" points="444.01 515.23 444.01 494.85 478.87 506.75 478.87 527.15 444.01 515.23"/><path class="cls-4" d="M444.39,495.38,478.5,507v19.6L444.39,515V495.38m-.75-1.05V515.5l35.61,12.17V506.48l-35.61-12.15Z"/><polygon class="cls-3" points="479.62 506.68 577.72 439.49 577.72 457.16 479.62 526.95 479.62 506.68"/><path class="cls-4" d="M577.34,440.2V457L480,526.22V506.88l97.34-66.68m.75-1.42-98.84,67.7v21.19l98.84-70.32V438.78Z"/><polygon class="cls-6" points="544.54 434.92 454.96 493.53 451.23 492.36 544.54 431.22 544.54 434.92"/><polygon class="cls-7" points="544.54 434.92 567.78 442.23 571.42 439.79 544.54 431.22 544.54 434.92"/><text class="cls-8" transform="translate(428.66 350.42)">Estación 3</text><text class="cls-9" transform="translate(557.28 380.63)">Caja 2</text><text class="cls-10" transform="translate(150.91 367.14)">Sensor 5</text><text class="cls-10" transform="translate(262.26 382.98)">Sensor 6</text><text class="cls-10" transform="translate(372.89 405.37)">Sensor 7</text><text class="cls-10" transform="translate(497.62 428.31)">Sensor 8</text><polygon class="cls-11" points="502.44 382.62 501.85 341.99 547.83 355.18 547.83 395.64 502.44 382.62"/><path class="cls-12" d="M502.23,342.49l45.23,13v39.68l-44.65-12.81-.58-39.84m-.77-1,.61,41.41,46.14,13.24V354.89l-46.75-13.4Z"/><polygon class="cls-11" points="514.03 410.4 547.83 390.99 547.83 396.08 514.03 415.84 514.03 410.4"/><path class="cls-12" d="M547.46,391.64v4.22l-33.05,19.33v-4.58l33.05-19m.75-1.3-34.55,19.84v6.31l34.55-20.2v-6Z"/><polygon class="cls-11" points="470.5 402.39 470.5 396.7 513.28 410.45 513.28 415.98 470.5 402.39"/><path class="cls-12" d="M470.87,397.22l42,13.51v4.74l-42-13.35v-4.9m-.75-1v6.48l43.54,13.82v-6.31l-43.54-14Z"/><polygon class="cls-13" points="471.37 396.06 502 378.81 546.9 390.52 513.6 409.64 471.37 396.06"/><path class="cls-13" d="M502.07,379.35l43.52,11.34-32,18.4-40.94-13.15,29.46-16.59m-.14-1.07-31.81,17.91,43.54,14,34.55-19.84-46.28-12.06Z"/><ellipse class="cls-14" cx="304.86" cy="404.38" rx="3.74" ry="1.07"/><ellipse class="cls-14" cx="304.86" cy="404.38" rx="5.87" ry="1.92"/><ellipse class="cls-14" cx="304.86" cy="404.49" rx="8.27" ry="2.71"/><ellipse class="cls-14" cx="417.28" cy="426.32" rx="3.74" ry="1.07"/><ellipse class="cls-14" cx="417.28" cy="426.32" rx="5.87" ry="1.92"/><ellipse class="cls-14" cx="417.28" cy="426.44" rx="8.27" ry="2.71"/><ellipse class="cls-14" cx="539.42" cy="450.17" rx="3.74" ry="1.07"/><ellipse class="cls-14" cx="539.42" cy="450.17" rx="5.87" ry="1.92"/><ellipse class="cls-14" cx="539.42" cy="450.29" rx="8.27" ry="2.71"/><path class="cls-15" d="M302.29,404.37V390.76a1.65,1.65,0,0,1,1.46-1.79h2.18a1.65,1.65,0,0,1,1.46,1.79v13.61a5.57,5.57,0,0,1-2.53.55A5.21,5.21,0,0,1,302.29,404.37Z"/><rect class="cls-15" x="301.45" y="391.96" width="6.83" height="3.68"/><path class="cls-15" d="M414.71,426.23V412.62a1.65,1.65,0,0,1,1.45-1.79h2.19a1.65,1.65,0,0,1,1.46,1.79v13.61a5.65,5.65,0,0,1-2.53.54A5.24,5.24,0,0,1,414.71,426.23Z"/><rect class="cls-15" x="413.86" y="413.81" width="6.83" height="3.68"/><path class="cls-15" d="M536.85,450V436.43a1.65,1.65,0,0,1,1.45-1.79h2.19a1.65,1.65,0,0,1,1.46,1.79V450a5.57,5.57,0,0,1-2.53.55A5.17,5.17,0,0,1,536.85,450Z"/><rect class="cls-15" x="536" y="437.63" width="6.83" height="3.68"/><text class="cls-16" transform="translate(253.63 440.07)">R6</text><text class="cls-16" transform="translate(368.36 458.57)">R7</text><text class="cls-16" transform="translate(489.86 481.33)">R8</text><polygon class="cls-3" points="114.46 427.42 214.51 361.65 247.22 372.08 149.17 439.25 114.46 427.42"/><path class="cls-4" d="M214.57,362.06l31.81,10.15-97.27,66.62L115.3,427.31l99.27-65.25m-.12-.82L113.61,427.52l35.61,12.14L248.07,372l-33.62-10.72Z"/><polygon class="cls-5" points="121.21 425.54 214.52 364.4 241.39 372.97 149.22 435.17 121.21 425.54"/><polygon class="cls-3" points="113.99 448.41 113.99 428.03 148.85 439.93 148.85 460.33 113.99 448.41"/><path class="cls-4" d="M114.36,428.56l34.11,11.64v19.6l-34.11-11.66V428.56m-.75-1.05v21.17l35.61,12.17V439.66l-35.61-12.15Z"/><polygon class="cls-3" points="149.6 439.86 247.69 372.67 247.69 390.34 149.6 460.13 149.6 439.86"/><path class="cls-4" d="M247.32,373.38v16.77L150,459.4V440.06l97.35-66.68m.75-1.42-98.85,67.7v21.19l98.85-70.32V372Z"/><polygon class="cls-6" points="214.52 368.1 124.93 426.71 121.21 425.54 214.52 364.4 214.52 368.1"/><polygon class="cls-7" points="214.52 368.1 237.76 375.41 241.39 372.97 214.52 364.4 214.52 368.1"/><text class="cls-16" transform="translate(151.82 418.74)">R5</text><ellipse class="cls-14" cx="203.53" cy="383.92" rx="3.74" ry="1.07"/><ellipse class="cls-14" cx="203.53" cy="383.92" rx="5.87" ry="1.92"/><ellipse class="cls-14" cx="203.53" cy="384.03" rx="8.27" ry="2.71"/><path class="cls-15" d="M201,383.71V370.1a1.65,1.65,0,0,1,1.45-1.79h2.19a1.65,1.65,0,0,1,1.46,1.79v13.61a5.57,5.57,0,0,1-2.53.55A5.17,5.17,0,0,1,201,383.71Z"/><rect class="cls-15" x="200.13" y="371.3" width="6.83" height="3.68"/><polyline class="cls-17" points="203.16 368.87 203.16 358.88 263.74 322.85 272.06 325.33"/><polyline class="cls-17" points="304.47 389.52 304.47 370.99 345.23 345.4"/><polyline class="cls-17" points="539.05 436.12 539.1 418.98 561.44 404.99 272.06 325.33"/><polyline class="cls-18" points="417.28 410.59 417.32 393.45 449.03 374.05"/><polyline class="cls-17" points="518.79 375.3 518.79 382.91 507.14 390.04"/><g class="cls-19"><g class="cls-19"><g class="cls-46"><g class="cls-19"><path class="cls-21" d="M512.73,373.37l5.17-3v.05l-5.17,3v-.05"/><path class="cls-22" d="M512.73,373.42l5.17-3s0,.05,0,.07l-5.16,3s0-.05,0-.07"/><path class="cls-23" d="M512.75,373.49l5.16-3,0,.09-5.17,3a.29.29,0,0,1,0-.09"/><path class="cls-24" d="M512.77,373.58l5.17-3a.61.61,0,0,0,0,.12l-5.16,3a.34.34,0,0,1-.06-.12"/><path class="cls-25" d="M512.83,373.7l5.16-3a.91.91,0,0,0,.18.21l-5.17,3a.68.68,0,0,1-.17-.21"/><path class="cls-24" d="M513,373.91l5.17-3,.12.08-5.17,3-.12-.07"/><path class="cls-23" d="M513.12,374l5.17-3,.08,0-5.17,3-.08,0"/><path class="cls-22" d="M513.2,374l5.17-3h0l-5.16,3h0"/></g></g></g><polygon class="cls-26" points="512.37 358.08 517.54 355.04 517.9 370.33 512.73 373.37 512.37 358.08"/><g class="cls-19"><g class="cls-47"><g class="cls-19"><path class="cls-28" d="M512.68,357.5l5.17-3-.06,0a.61.61,0,0,0-.17.19l-5.17,3a.77.77,0,0,1,.17-.19l.06-.05"/><path class="cls-29" d="M512.45,357.74l5.17-3a.36.36,0,0,0,0,.09l-5.17,3,0-.09"/><path class="cls-30" d="M512.41,357.83l5.17-3a.24.24,0,0,0,0,.08l-5.17,3,0-.08"/><path class="cls-31" d="M512.39,357.91l5.17-3a.64.64,0,0,1,0,.07l-5.16,3a.17.17,0,0,1,0-.07"/><path class="cls-32" d="M512.38,358l5.16-3V355l-5.17,3a.22.22,0,0,1,0-.08"/><path class="cls-21" d="M512.37,358.06l5.17-3v0l-5.17,3v0"/></g></g></g><g class="cls-19"><g class="cls-48"><g class="cls-19"><path class="cls-28" d="M512.68,357.5l5.17-3a.2.2,0,0,1,.08,0l-5.17,3-.08,0"/><path class="cls-29" d="M512.76,357.46l5.17-3a.17.17,0,0,1,.1,0l-5.17,3-.1,0"/><path class="cls-30" d="M512.86,357.44l5.17-3,.08,0-5.17,3-.08,0"/><path class="cls-31" d="M512.94,357.42l5.17-3h.07l-5.16,3h-.08"/></g></g></g><polygon class="cls-22" points="513.02 357.42 518.18 354.38 518.36 354.41 513.19 357.45 513.02 357.42"/><polygon class="cls-35" points="513.23 374.03 518.39 370.99 530.38 374.8 525.22 377.84 513.23 374.03"/><g class="cls-19"><g class="cls-49"><g class="cls-19"><path class="cls-22" d="M525.22,377.84l5.16-3,.06,0-5.17,3h0"/><path class="cls-21" d="M525.27,377.85l5.17-3h.07l-5.17,3-.07,0"/><path class="cls-32" d="M525.34,377.87l5.17-3h.07l-5.17,3h-.07"/><path class="cls-31" d="M525.41,377.87l5.17-3h.07l-5.16,3h-.08"/><path class="cls-30" d="M525.49,377.87l5.16-3h.08l-5.17,3h-.07"/><path class="cls-29" d="M525.56,377.86l5.17-3,.09,0-5.16,3-.1,0"/><path class="cls-28" d="M525.66,377.83l5.16-3,.1,0-5.17,3-.09.05"/></g></g></g><g class="cls-19"><g class="cls-50"><g class="cls-19"><path class="cls-28" d="M512.3,356.86l5.16-3,.19-.09-5.16,3a.66.66,0,0,0-.19.09"/><path class="cls-29" d="M512.49,356.77l5.16-3a.76.76,0,0,1,.2-.06l-5.17,3a.7.7,0,0,0-.19.06"/><path class="cls-30" d="M512.68,356.71l5.17-3,.17,0-5.17,3-.17,0"/><path class="cls-31" d="M512.85,356.68l5.17-3h.15l-5.17,3h-.15"/><path class="cls-32" d="M513,356.68l5.17-3h.15l-5.17,3H513"/><path class="cls-21" d="M513.15,356.69l5.17-3,.15,0-5.17,3-.15,0"/><path class="cls-22" d="M513.3,356.71l5.17-3h.06l-5.16,3-.07,0"/></g></g></g><g class="cls-19"><g class="cls-51"><g class="cls-19"><path class="cls-28" d="M525.8,377.75l5.16-3s0,0,0,0l-5.17,3,0,0"/></g></g></g><g class="cls-19"><g class="cls-52"><g class="cls-19"><path class="cls-21" d="M526.05,377.21l5.16-3v0l-5.16,3v0"/><path class="cls-32" d="M526.05,377.24l5.16-3v.08l-5.17,3s0,0,0-.07"/><path class="cls-31" d="M526,377.31l5.17-3s0,0,0,.07l-5.17,3s0-.05,0-.08"/><path class="cls-30" d="M526,377.39l5.17-3,0,.08-5.16,3a.19.19,0,0,1,0-.08"/><path class="cls-29" d="M526,377.47l5.16-3a.36.36,0,0,1,0,.09l-5.17,3a.56.56,0,0,0,0-.08"/><path class="cls-28" d="M526,377.55l5.17-3a.61.61,0,0,1-.17.19l-5.16,3a.53.53,0,0,0,.16-.2"/></g></g></g><g class="cls-19"><g class="cls-53"><g class="cls-19"><path class="cls-21" d="M526.77,377.23l5.16-3v.05l-5.16,3v0"/><path class="cls-32" d="M526.77,377.28l5.16-3a.86.86,0,0,1,0,.16l-5.16,3c0-.06,0-.11,0-.16"/><path class="cls-31" d="M526.76,377.44l5.16-3a.77.77,0,0,1,0,.15l-5.17,3,0-.15"/><path class="cls-30" d="M526.73,377.59l5.17-3c0,.05,0,.11,0,.16l-5.17,3a1,1,0,0,0,.05-.16"/><path class="cls-29" d="M526.68,377.75l5.17-3a1.42,1.42,0,0,1-.08.18l-5.17,3a1.42,1.42,0,0,0,.08-.18"/><path class="cls-28" d="M526.6,377.93l5.17-3a1.34,1.34,0,0,1-.37.42l-.13.09-5.17,3,.14-.09a1.44,1.44,0,0,0,.36-.42"/></g></g></g><polygon class="cls-40" points="513.19 357.45 518.36 354.41 530.34 357.92 525.18 360.96 513.19 357.45"/><polygon class="cls-26" points="525.68 361.61 530.85 358.57 531.21 374.18 526.05 377.21 525.68 361.61"/><path class="cls-43" d="M513,357.42l.17,0,12,3.51a.7.7,0,0,1,.5.65l.37,15.6a.68.68,0,0,1-.25.54.62.62,0,0,1-.39.12.63.63,0,0,1-.19,0l-12-3.81a.73.73,0,0,1-.5-.66l-.36-15.29a.67.67,0,0,1,.25-.53A.64.64,0,0,1,513,357.42Z"/><g class="cls-19"><g class="cls-54"><g class="cls-19"><path class="cls-22" d="M525.18,361l5.16-3h0l-5.17,3h0"/><path class="cls-23" d="M525.22,361l5.17-3,.08,0-5.17,3-.08,0"/><path class="cls-24" d="M525.3,361l5.17-3a.41.41,0,0,1,.11.07l-5.17,3a.41.41,0,0,0-.11-.07"/><path class="cls-25" d="M525.41,361.08l5.17-3a.79.79,0,0,1,.17.2l-5.16,3a.86.86,0,0,0-.18-.2"/><path class="cls-24" d="M525.59,361.28l5.16-3,.06.12-5.17,3a.61.61,0,0,0,0-.12"/><path class="cls-23" d="M525.64,361.4l5.17-3a.29.29,0,0,1,0,.09l-5.17,3a.29.29,0,0,0,0-.09"/><path class="cls-22" d="M525.66,361.49l5.17-3a.22.22,0,0,1,0,.08l-5.16,3s0-.06,0-.08"/><path class="cls-21" d="M525.68,361.57l5.16-3a.43.43,0,0,1,0,.05l-5.17,3v0"/></g></g></g><polygon class="cls-40" points="513.37 356.73 518.53 353.69 530.52 357.2 525.35 360.24 513.37 356.73"/><polygon class="cls-26" points="526.4 361.63 531.57 358.59 531.93 374.19 526.77 377.23 526.4 361.63"/><g class="cls-19"><g class="cls-55"><g class="cls-19"><path class="cls-22" d="M525.35,360.24l5.17-3,.09,0-5.17,3-.09,0"/><path class="cls-23" d="M525.44,360.27l5.17-3,.17.08-5.17,3-.17-.08"/><path class="cls-24" d="M525.61,360.35l5.17-3a1.14,1.14,0,0,1,.23.15l-5.17,3a1.14,1.14,0,0,0-.23-.15"/><path class="cls-25" d="M525.84,360.5l5.17-3a1.61,1.61,0,0,1,.36.42l-5.17,3a1.32,1.32,0,0,0-.36-.42"/><path class="cls-24" d="M526.2,360.92l5.17-3a1.89,1.89,0,0,1,.11.25l-5.16,3a1.15,1.15,0,0,0-.12-.25"/><path class="cls-23" d="M526.32,361.17l5.16-3a1.39,1.39,0,0,1,.06.19l-5.17,3a1.33,1.33,0,0,0,0-.19"/><path class="cls-22" d="M526.37,361.36l5.17-3a1,1,0,0,1,0,.17l-5.17,3a.88.88,0,0,0,0-.17"/><path class="cls-21" d="M526.39,361.53l5.17-3s0,.06,0,.1l-5.17,3a.31.31,0,0,0,0-.1"/></g></g></g><path class="cls-43" d="M525.35,360.24a1.48,1.48,0,0,1,1,1.39l.37,15.6a1.34,1.34,0,0,1-1.34,1.39,1.76,1.76,0,0,1-.4-.07l-12-3.81a1.52,1.52,0,0,1-1-1.38l-.36-15.29a1.4,1.4,0,0,1,.51-1.12,1.3,1.3,0,0,1,.84-.27,1.57,1.57,0,0,1,.37.05Zm.7,17-.37-15.6a.7.7,0,0,0-.5-.65l-12-3.51-.17,0a.64.64,0,0,0-.4.13.67.67,0,0,0-.25.53l.36,15.29a.73.73,0,0,0,.5.66l12,3.81a.63.63,0,0,0,.19,0,.62.62,0,0,0,.39-.12.68.68,0,0,0,.25-.54"/></g><g id="Capa_1-2-2" data-name="Capa 1-2"><g id="Siemav-blanco-2" data-name="Siemav-blanco"><path class="cls-45" d="M523,370.64l-.36,1.57a.36.36,0,0,1-.46.25l-8-2.47a.5.5,0,0,1-.37-.58l1-4.48,3,.91,1.06,3-2.32-.73a.12.12,0,0,0-.14,0l-.62,1a.13.13,0,0,0,0,.15.21.21,0,0,0,.14.11l3.71,1.15a.22.22,0,0,0,.08,0l1.5-.5Zm-3.56-5.25,3.31,1-.48.79-2.31-.73a.22.22,0,0,0-.14,0,.15.15,0,0,0,0,.16l1.14,3.16-1.39.46-3.4-1,.45-.75c.81.24,1.65.51,2.46.76a.17.17,0,0,0,.14,0,.13.13,0,0,0,0-.14L518,365.86Z"/><path class="cls-45" d="M515.88,365l.48-2.11a.38.38,0,0,1,.51-.26l8,2.45a.64.64,0,0,1,.46.73l-1.12,5-3-.92-1.07-2.95,2.17.7a.12.12,0,0,0,.14-.05l.63-1.05a.15.15,0,0,0,0-.16.26.26,0,0,0-.14-.11l-3.61-1.12h-.08l-1.47.48-1.91-.58v0Zm7.87,1.39.14,0a1.26,1.26,0,0,0-.59-.78l0,.11A1.06,1.06,0,0,1,523.75,366.34Zm.36,0h.16a1.91,1.91,0,0,0-.86-1.11l0,.14A1.68,1.68,0,0,1,524.11,366.37Zm-.94-.41a.78.78,0,0,1,.26.36h.11a1.22,1.22,0,0,0-.34-.47Z"/></g></g></g></g></svg>